<?xml version="1.0" encoding="utf-8"?>
<!-- Generator: Adobe Illustrator 24.1.0, SVG Export Plug-In . SVG Version: 6.00 Build 0)  -->
<svg version="1.1" id="Aerialway" xmlns="http://www.w3.org/2000/svg" xmlns:xlink="http://www.w3.org/1999/xlink" x="0px" y="0px"
	 viewBox="0 0 11 11" style="enable-background:new 0 0 11 11;" xml:space="preserve">
<path style="fill: #fff" class="st0" d="M9,4.5H6V3.1C6.2,3,6.4,2.8,6.4,2.6L9.5,2C9.8,2,10,1.8,10,1.5S9.8,1,9.5,1L6.2,1.6c-0.4-0.4-1-0.5-1.4-0.1
	C4.7,1.6,4.6,1.8,4.6,1.9L1.5,2.5C1.2,2.5,1,2.7,1,3s0.2,0.5,0.5,0.5l3.2-0.6C4.8,3,4.9,3,5,3.1v1.4H2c-0.6,0-1,0.4-1,1V9
	c0,0.6,0.4,1,1,1h7c0.6,0,1-0.4,1-1V5.5C10,4.9,9.6,4.5,9,4.5z M5,8.5H2.5v-3H5V8.5z M8.5,8.5H6v-3h2.5V8.5z"/>
</svg>
