<?xml version="1.0" encoding="utf-8"?>
<!-- Generator: Adobe Illustrator 24.1.0, SVG Export Plug-In . SVG Version: 6.00 Build 0)  -->
<svg version="1.1"
	 id="svg4986" xmlns:cc="http://creativecommons.org/ns#" xmlns:dc="http://purl.org/dc/elements/1.1/" xmlns:rdf="http://www.w3.org/1999/02/22-rdf-syntax-ns#" xmlns:svg="http://www.w3.org/2000/svg"
	 xmlns="http://www.w3.org/2000/svg" xmlns:xlink="http://www.w3.org/1999/xlink" x="0px" y="0px" viewBox="0 0 18 18"
	 style="enable-background:new 0 0 18 18;" xml:space="preserve">
<style type="text/css">
	.st0{fill-rule:evenodd;clip-rule:evenodd;fill:#FFFFFF;}
</style>
<g id="layer1" transform="translate(-53.499985,-902.86218)">
	<g id="generic-md-1" transform="translate(-180,480)">
		<path id="rect3443" class="st0" d="M235.9,422.9h13.2c1.3,0,2.4,1.1,2.4,2.4v13.2c0,1.3-1.1,2.4-2.4,2.4h-13.2
			c-1.3,0-2.4-1.1-2.4-2.4v-13.2C233.5,423.9,234.6,422.9,235.9,422.9z"/>
		<path id="rect3445" class="st0" d="M235.7,423.9h13.5c0.7,0,1.2,0.6,1.2,1.2v13.5c0,0.7-0.6,1.2-1.2,1.2h-13.5
			c-0.7,0-1.2-0.6-1.2-1.2v-13.5C234.5,424.4,235.1,423.9,235.7,423.9z"/>
	</g>
</g>
</svg>
