<?xml version="1.0" encoding="utf-8"?>
<!-- Generator: Adobe Illustrator 24.1.0, SVG Export Plug-In . SVG Version: 6.00 Build 0)  -->
<svg version="1.1"
	 id="svg5088" xmlns:cc="http://creativecommons.org/ns#" xmlns:dc="http://purl.org/dc/elements/1.1/" xmlns:rdf="http://www.w3.org/1999/02/22-rdf-syntax-ns#" xmlns:svg="http://www.w3.org/2000/svg"
	 xmlns="http://www.w3.org/2000/svg" xmlns:xlink="http://www.w3.org/1999/xlink" x="0px" y="0px" viewBox="0 0 50 18"
	 style="enable-background:new 0 0 50 18;" xml:space="preserve">
<style type="text/css">
	.st0{fill-rule:evenodd;clip-rule:evenodd;fill:#FFFFFF;}
</style>
<g id="layer1" transform="translate(-54.999985,-941.36218)">
	<g id="generic-md-3" transform="translate(-180,480)">
		<g id="g6358">
			<path id="rect3455" class="st0" d="M238,461.4h44c1.7,0,3,1.3,3,3v12c0,1.7-1.3,3-3,3h-44c-1.7,0-3-1.3-3-3v-12
				C235,462.7,236.3,461.4,238,461.4z"/>
			<path id="rect3457" class="st0" d="M238,462.4h44c1.1,0,2,0.9,2,2v12c0,1.1-0.9,2-2,2h-44c-1.1,0-2-0.9-2-2v-12
				C236,463.3,236.9,462.4,238,462.4z"/>
		</g>
	</g>
</g>
</svg>
